<?xml version="1.0" encoding="utf-8"?>
<!-- Generator: Adobe Illustrator 17.0.0, SVG Export Plug-In . SVG Version: 6.00 Build 0)  -->
<!DOCTYPE svg PUBLIC "-//W3C//DTD SVG 1.1//EN" "http://www.w3.org/Graphics/SVG/1.1/DTD/svg11.dtd">
<svg version="1.1" xmlns="http://www.w3.org/2000/svg" xmlns:xlink="http://www.w3.org/1999/xlink" x="0px" y="0px"
	 width="29.243px" height="29.243px" viewBox="0 0 29.243 29.243" xml:space="preserve" fill="#515151">
<g id="Layer_1" display="none">
</g>
<g id="Layer_6">
</g>
<g id="Layer_2">
	<g>
		<g>
			<path d="M29.243,14.621C29.243,6.546,22.696,0,14.621,0C6.546,0,0,6.546,0,14.621c0,7.298,5.347,13.347,12.337,14.444V18.848
				H8.624v-4.227h3.712V11.4c0-3.664,2.183-5.689,5.523-5.689c1.6,0,3.273,0.286,3.273,0.286v3.598h-1.844
				c-1.816,0-2.383,1.127-2.383,2.283v2.743h4.055l-0.648,4.227h-3.407v10.217C23.896,27.968,29.243,21.919,29.243,14.621z"/>
			<path fill="#FFFFFF" d="M20.313,18.848l0.648-4.227h-4.055v-2.743c0-1.156,0.566-2.283,2.383-2.283h1.844V5.997
				c0,0-1.673-0.286-3.273-0.286c-3.34,0-5.523,2.024-5.523,5.689v3.221H8.624v4.227h3.712v10.217
				c0.744,0.117,1.507,0.178,2.285,0.178c0.777,0,1.54-0.061,2.285-0.178V18.848H20.313z"/>
		</g>
	</g>
</g>
<g id="Layer_5">
</g>
<g id="Layer_3">
</g>
<g id="Layer_4">
</g>
</svg>
