<?xml version="1.0" encoding="utf-8"?>
<!-- Generator: Adobe Illustrator 17.0.0, SVG Export Plug-In . SVG Version: 6.00 Build 0)  -->
<!DOCTYPE svg PUBLIC "-//W3C//DTD SVG 1.1//EN" "http://www.w3.org/Graphics/SVG/1.1/DTD/svg11.dtd">
<svg version="1.1" xmlns="http://www.w3.org/2000/svg" xmlns:xlink="http://www.w3.org/1999/xlink" x="0px" y="0px"
	 width="29.243px" height="29.243px" viewBox="0 0 29.243 29.243" class="rect" fill="#515151" xml:space="preserve">
<g id="Layer_1" display="none">
</g>
<g id="Layer_6">
</g>
<radialGradient id="rg" r="150%" cx="30%" cy="107%">
	<stop stop-color="#fdf497" offset="0" />
	<stop stop-color="#fdf497" offset="0.05" />
	<stop stop-color="#fd5949" offset="0.45" />
	<stop stop-color="#d6249f" offset="0.6" />
	<stop stop-color="#285AEB" offset="0.9" />
</radialGradient>
<g id="Layer_2">
	<g>
		<circle cx="14.621" cy="14.621" r="14.621"/>
		<g>
			<g>
				<circle fill="#FFFFFF" cx="19.16" cy="10.095" r="1.005"/>
				<path fill="#FFFFFF" d="M14.692,10.379c-2.328,0-4.222,1.894-4.222,4.222c0,2.328,1.894,4.222,4.222,4.222
					c2.328,0,4.222-1.894,4.222-4.222C18.914,12.273,17.02,10.379,14.692,10.379z M14.692,17.305c-1.491,0-2.705-1.213-2.705-2.704
					s1.213-2.704,2.705-2.704c1.491,0,2.704,1.213,2.704,2.704S16.183,17.305,14.692,17.305z"/>
				<path fill="#FFFFFF" d="M18.043,23.173h-6.845c-2.839,0-5.149-2.31-5.149-5.149v-6.845c0-2.84,2.31-5.149,5.149-5.149h6.845
					c2.839,0,5.15,2.31,5.15,5.149v6.845C23.193,20.863,20.883,23.173,18.043,23.173z M11.199,7.642
					c-1.95,0-3.537,1.586-3.537,3.536v6.845c0,1.95,1.586,3.537,3.537,3.537h6.845c1.95,0,3.537-1.586,3.537-3.537v-6.845
					c0-1.95-1.587-3.536-3.537-3.536H11.199z"/>
			</g>
		</g>
	</g>
</g>
<g id="Layer_5">
</g>
<g id="Layer_3">
</g>
<g id="Layer_4">
</g>
</svg>
