<svg version="1.2" xmlns="http://www.w3.org/2000/svg" viewBox="0 0 1174 431" width="1174" height="431">
	<title>png_20230520_165517_0000-svg</title>
	<g id="Layer">
		<path id="Layer" class="s0" d="m582.2-373.8c-0.5 0.7-3 5.4-5.5 10.4-2.5 4.9-5.3 9.6-6.2 10.4-0.9 0.7-2.2 2.5-3 4-4.9 9.6-30.7 35.3-43.4 43.4-9.4 5.9-24.6 16.6-27.7 19.3-3 2.7-3.1 3-2 6.5 1.8 6.2 17.6 15.7 21.1 12.8 1-0.8 1.2-2.5 0.8-5.9-0.8-7 0.9-11.2 5.8-14.2 5.7-3.4 18-13.2 26.2-20.9 9.5-8.9 17.5-18.8 26.8-33.3 5.5-8.5 8.1-10.3 16.1-11.5l5.3-0.8v-5.6c0-4.7-0.6-6.4-3.5-10.7-3-4.3-4-5.1-6.6-5.1-1.7 0-3.6 0.6-4.2 1.2z"/>
		<path id="Layer" class="s0" d="m609.4-334.6c-0.5 1.3-0.1 2.4 1.4 3.5 1.1 0.9 2.7 3.3 3.6 5.4 0.8 2 2.2 4 3.1 4.3 0.9 0.4 2.3 2 3.2 3.7 1.7 3.4 5.9 8.1 13.8 15.5 8.8 8.3 11.1 10.9 12.9 14.6 2.5 5.2 1.3 9.9-3.3 13.4-2 1.5-4.9 3.7-6.6 4.9-1.6 1.3-4.8 3.3-7 4.4-4 2.2-18.7 11.6-30.8 19.8-10 6.8-17.7 10.9-21.7 11.6-2.5 0.4-5.7-0.1-10.7-2-5.9-2.1-10.3-2.5-10.3-0.9 0 0.2 1.1 2 2.5 4 1.4 2.1 2.3 4.4 2 5.2-0.3 0.7-0.5 2.2-0.5 3.3 0 2.8-7.4 10.4-15 15.6-10.2 6.8-19.1 13-24.5 16.9-2.7 1.9-9.3 6-14.6 9-7.9 4.4-10.9 5.5-16.1 6-8.1 0.9-9.2 1.5-12.6 7.3-1.5 2.7-5 6.6-7.7 8.8-4.8 3.7-33.3 18.4-38.5 19.8-1.4 0.4-5.3 2-8.6 3.6-4 1.9-9.1 3.3-14.5 4-4.6 0.6-9.5 1.3-10.8 1.6l-2.4 0.4 2.9 3c2 2.1 3.7 2.9 6.1 2.9 5.7 0 31.7-4.8 37.4-6.9 3-1.1 7.7-2.5 10.4-3.2 5.7-1.4 29-12.4 35-16.5 6.7-4.5 10.5-5.7 19.5-5.9 13.9-0.3 12.7 0.2 14.6-6.3 2.4-8.2 3.6-9.6 14.3-16.8 9.1-6.1 13.9-9.5 26.3-19 14.8-11.2 14-10.9 25.6-11.4 11.9-0.6 10.5 0.5 13.1-9.6 0.6-2.3 2-5.3 3.1-6.6 1.8-2.3 17.9-13.5 29-20.1 2.5-1.5 5.6-3.6 7-4.6 3.5-2.6 17-11 23.5-14.7 3-1.6 6.6-4.5 8-6.4l2.4-3.3-2-3.7c-1.1-2-3.9-4.8-6.2-6.3-2.3-1.4-6.7-4.3-9.7-6.3-7-4.7-36.5-33.8-38.1-37.5-0.8-2-1.9-2.9-3.5-2.9-1.3 0-2.7-0.8-3.3-1.8-0.9-1.6-1-1.6-1.7 0.2z"/>
		<path id="Layer" class="s0" d="m228-314.5c-0.8 0.2-4.9 0.8-9 1.5-4.1 0.6-10.2 2-13.5 3-3.3 1-8.7 2.4-11.9 3-3.7 0.8-10.1 3.5-17 7.3-17 9.2-22.6 13.2-36.2 25.9-5.5 5.1-12.2 11.8-14.7 14.8-2.6 3-5.4 6.4-6.4 7.5-2.8 3.1-8.3 11.6-10.9 16.7-1.3 2.7-2.8 4.8-3.3 4.8-0.5 0-1.4 1.3-2.1 3-2 4.8-8.1 9.6-14.1 11-3.1 0.7-6.3 2.3-7.6 3.6-1.6 1.8-3.3 2.4-6.2 2.4-4.9 0-14.1 2.1-14.1 3.2 0 0.4-1.8 1.7-3.9 2.8-4.9 2.4-14.9 11.1-17.1 14.8-0.9 1.5-1.9 4.3-2.3 6.3-0.5 3.3-0.3 3.7 1.9 4.2 1.9 0.3 2.8-0.2 3.9-2.2 2.3-4.2 16.1-17.1 19.7-18.3 1.8-0.6 5-2.2 7-3.6 2.1-1.3 5.9-2.8 8.5-3.3 4.1-0.8 4.9-0.6 6.9 1.2 1.2 1.2 2.8 3.5 3.4 5.2 2.9 7.8 6.4 13.7 8.1 13.7 0.5 0 0.9-1.2 0.9-2.8 0-3.2 1.6-9.8 3.2-13 0.7-1.3 4.1-4.4 7.6-6.9l6.4-4.6-0.6-7.7-0.7-7.8 8.9-10.4c4.9-5.6 12.4-13.6 16.8-17.7 10.3-9.6 14.5-12.8 35.6-26.5 6.2-4.1 26.7-11.5 39.3-14.3 6.3-1.4 12.6-1.8 29.5-1.8 19.7 0 22.6 0.3 35 2.8 7.4 1.6 15.4 3.7 17.6 4.8 5.8 2.7 16.2 4.3 18 2.8 1.2-1 0.7-1.7-2.6-4.1-2.2-1.6-4-3.4-4-3.9 0-0.5-0.7-0.9-1.5-0.9-0.8 0-4.7-1.7-8.8-3.9-4-2.1-10.5-4.6-14.3-5.4-3.8-0.9-8.9-2.3-11.4-3.2-9.2-3.3-35.5-5.6-44-4z"/>
		<path id="Layer" class="s0" d="m898.8-313.5c-4.2 0.7-10.5 2.2-14 3.3-3.5 1.2-9.1 2.8-12.4 3.6-3.4 0.8-7.8 2.6-9.8 4-2 1.4-5.4 3-7.4 3.7-2 0.6-4.6 1.9-5.7 2.8-1.1 1-3.2 2.5-4.7 3.4-9.2 5.7 5.8 6.4 17.5 0.8 2.3-1.1 10.5-3.2 18.2-4.8 13-2.6 15.6-2.8 36.5-2.7 21.8 0.1 22.9 0.2 33.5 3.1 13.6 3.7 26.9 8.6 31.5 11.7 1.9 1.3 5.3 3.4 7.5 4.7 10.2 5.9 24.2 17.4 36.9 30.3 7.6 7.8 14.7 15.4 15.7 17.1 1.4 2.2 1.9 5 1.9 11l0.1 8 6.1 5c3.4 2.7 6.9 6.3 7.9 7.9 1 1.6 3.3 3.5 5.3 4.1 3.4 1.2 3.7 1.1 4.2-1 0.3-1.3 1.9-3.6 3.5-5.1 2.7-2.5 3.8-2.9 8.9-2.9 4.6 0.1 6.6 0.6 8.7 2.3 1.6 1.2 4.6 3.1 6.8 4.1 2.2 1 6.7 4.5 10 7.7 3.3 3.3 7.7 7.2 9.8 8.8 2.5 1.9 4.3 4.4 5.4 7.7 2 5.5 3.3 4.7 3.3-2.1 0-3.6-0.8-5.7-4-10.5-2.2-3.3-4.3-6.3-4.7-6.7-11.8-10.5-17.5-13.8-26.8-15.4-4.4-0.8-9.1-2.3-10.5-3.3-1.4-1-4.1-2.2-6-2.6-8-1.7-13.4-6.4-19.9-17.5-5.3-9-7.9-12.7-15.2-21.8-6.3-7.8-20.9-22.2-27.8-27.4-3.1-2.3-6.7-5.2-8.1-6.4-5.3-4.7-29.4-17.2-35.5-18.4-3.3-0.6-9-2-12.6-3.1-16-4.6-38.3-6.1-54.1-3.4z"/>
		<path id="Layer" class="s0" d="m318.5-284.9c-0.3 0.5-0.9 3.2-1.2 6.1-0.3 2.9-1.2 6.7-2 8.5-1.3 3.3-3.2 4.1-12.7 5.8-4 0.7-16.6 7.2-24.6 12.8-6.9 4.8-20.1 18.5-24.2 25.2-5.4 8.7-10.7 20.1-12.6 27-2 7.2-2.2 31.3-0.3 46.9 0.9 8.2 1.7 10.8 4.1 14.5 1.7 2.4 3 5.1 3 5.8 0 0.8 1 2.4 2.3 3.6 1.3 1.2 3.2 4.3 4.3 6.9 1.1 2.7 2.9 5.1 4.2 5.7 1.2 0.6 2.7 2.2 3.2 3.6 0.5 1.4 2 2.9 3.4 3.4 1.3 0.6 2.8 2.3 3.4 4 0.7 2 1.8 3.1 3 3.1 2.7 0 3.4-1.1 1.8-2.9-0.8-0.9-1.6-2.5-1.8-3.6-0.2-1.1-1.5-2.6-3-3.3-1.6-0.7-3.1-2.6-3.8-4.7-0.6-1.9-1.6-3.5-2.1-3.5-0.6 0-2.2-2.6-3.6-5.7-1.5-3.2-3.5-6.5-4.5-7.3-1.3-1-2.4-4.3-3.4-10.5-0.9-4.9-2.3-10.3-3.2-12-2.2-4.4-2.6-15.9-0.8-22.5 0.9-3 2.3-8.7 3.1-12.5 2.9-13.4 14.2-32.1 27-44.8 10.6-10.5 17.8-16 24-18.7 2.3-1 5.4-2.9 6.9-4.4 1.6-1.4 3.8-2.8 5-3.2 1.1-0.4 2.6-1.3 3.1-2.1 2.5-3.3 17.9-3.6 21.9-0.4 0.6 0.5 2.8 1.4 4.9 1.9 3.4 1 4 0.8 7.8-2.4 2.3-1.9 5.2-3.7 6.5-4 4.2-1.1 2.7-2.1-6.3-4.3-7.3-1.9-18.3-6.4-24.3-9.9-2.9-1.8-8-3-8.5-2.1z"/>
		<path id="Layer" class="s0" d="m835.5-284c-1.7 0.7-1.4 0.9 1.3 0.9 2 0.1 3.1-0.3 2.7-0.9-0.7-1.2-1.3-1.2-4 0z"/>
		<path id="Layer" class="s0" d="m830.8-278.8c-0.4 1-1.8 1.8-3 1.8-1.3 0-3.4 0.9-4.8 2-1.4 1.1-2.9 2-3.4 2-1.6 0-21.6 8.2-22.1 9-0.2 0.4 1.3 2.6 3.4 4.9 4.8 5.1 8.4 6 13.3 3.2 5.4-3.2 12.3-3.7 18.3-1.3 2.8 1.1 7.5 2.3 10.5 2.6 3 0.4 6.7 0.9 8.1 1.2 1.7 0.3 2.8 0 3.2-0.9 0.4-1.1-1.1-2.1-5.4-3.7-3.3-1.2-7.5-3.1-9.4-4.3-1.8-1.2-4.7-3-6.4-3.9-2.3-1.3-3.1-2.4-3.1-4.6 0-1.5 0.5-3.3 1.1-3.9 0.6-0.6 0.9-2.1 0.7-3.4-0.3-2-0.4-2.1-1-0.7z"/>
		<path id="Layer" class="s0" d="m374.5-270c-0.4 0.6 4 1 12.7 0.9 8.2-0.1 12.3-0.4 10.8-0.9-3.7-1.2-22.8-1.2-23.5 0z"/>
		<path id="Layer" class="s0" d="m519-263c0 0.5 1.2 1 2.8 1 2.1 0 2.4-0.2 1.2-1-2-1.3-4-1.3-4 0z"/>
		<path id="Layer" class="s0" d="m754-262c0 1.1 5.9 1.2 14 0 5-0.7 4.7-0.7-4.2-0.9-6 0-9.8 0.3-9.8 0.9z"/>
		<path id="Layer" class="s0" d="m526-257c0 0.6 0.7 1 1.5 1 0.8 0 1.5-0.2 1.5-0.4 0-0.2-0.7-0.6-1.5-1-0.8-0.3-1.5-0.1-1.5 0.4z"/>
		<path id="Layer" class="s0" d="m855-250.7c0 2 2.3 3.2 7.6 4.1 3.3 0.4 4.3 0.2 4.8-0.9 0.6-1.8-2.7-3.4-8.6-4.2-3-0.5-3.8-0.2-3.8 1z"/>
		<path id="Layer" class="s0" d="m539-249c0 0.5 1.2 1 2.6 1 1.4 0 2.3-0.4 1.9-1-0.3-0.6-1.5-1-2.6-1-1 0-1.9 0.4-1.9 1z"/>
		<path id="Layer" class="s0" d="m717.5-249c-0.3 0.6 0.5 1 1.9 1 1.4 0 2.8-0.5 3.1-1 0.3-0.6-0.5-1-1.9-1-1.4 0-2.8 0.4-3.1 1z"/>
		<path id="Layer" class="s0" d="m871.5-242c0.3 0.5 1 1 1.6 1 0.5 0 0.9-0.5 0.9-1 0-0.6-0.7-1-1.6-1-0.8 0-1.2 0.4-0.9 1z"/>
		<path id="Layer" class="s0" d="m552-241.6c0 0.2 0.7 0.6 1.5 1 0.8 0.3 1.5 0.1 1.5-0.4 0-0.6-0.7-1-1.5-1-0.8 0-1.5 0.2-1.5 0.4z"/>
		<path id="Layer" class="s0" d="m879.5-235c0.3 0.5 0.8 1 1.1 1 0.2 0 0.4-0.5 0.4-1 0-0.6-0.5-1-1.1-1-0.5 0-0.7 0.4-0.4 1z"/>
		<path id="Layer" class="s0" d="m893-222.1c0 1.1 0.4 2.1 0.9 2.1 1.8 0 2.1-1.8 0.6-3-1.3-1-1.5-0.9-1.5 0.9z"/>
		<path id="Layer" class="s0" d="m905-203.8c0 3.8 1 9.2 2.6 13.8 0.5 1.3 0.8 1.2 1.9-0.3 2.2-3-0.3-17.7-3-17.7-1.1 0-1.5 1.2-1.5 4.2z"/>
		<path id="Layer" class="s0" d="m357.8-199.3c-1.4 1.6-4 5.4-5.8 8.7-3.2 6.1-7.9 11.1-14.2 15.4-2.1 1.3-3.8 2.7-3.8 2.9 0 2.2 4 6.5 7 7.4 1.9 0.6 3.9 1.5 4.5 2 0.5 0.5 1.5 0.9 2.2 0.9 1.4 0 5.3-7.1 7.3-13.5 1.5-4.6 10.7-14.7 15.1-16.5 2.2-1 2.9-1.9 2.9-4.1 0-1.5 0.6-3.1 1.3-3.6 1.3-0.8-4.6-2.1-10.4-2.2-2.6-0.1-4.2 0.6-6.1 2.6z"/>
		<path id="Layer" class="s0" d="m392-201c-5.2 0.5-3.9 0.7 7 0.8 9 0.1 13-0.2 12-0.8-1.6-1-8.6-1-19 0z"/>
		<path id="Layer" class="s0" d="m796-201c0 0.6-2.2 2.5-5 4.2l-4.9 3.1 3.7 2.8c5.6 4.2 10.6 9 13.4 12.9 3.3 4.6 6.8 11.5 6.8 13.5 0 1 1 1.5 3.2 1.5 4 0 11.8-2.9 11.8-4.4 0-0.6 0.3-2.1 0.6-3.3 0.5-1.8-0.1-2.5-3.4-4.2-3.7-1.9-11.9-10.6-21.2-22.5-3.5-4.5-5-5.5-5-3.6z"/>
		<path id="Layer" class="s0" d="m733.5-195.6c-0.5 0.3-2.7 0.7-4.7 1.1-3 0.5-3.8 1-3.8 2.7 0 1.9 0.4 2 5.8 1.4 12.5-1.5 18.5-2.8 16.9-3.7-1.7-1-12.6-2.1-14.2-1.5z"/>
		<path id="Layer" class="s0" d="m441.3-193.3c0.9 0.2 2.5 0.2 3.5 0 0.9-0.3 0.1-0.5-1.8-0.5-1.9 0-2.7 0.2-1.7 0.5z"/>
		<path id="Layer" class="s0" d="m713.8-188.9c-3.7 0.5-8.7 1.6-11 2.4-2.4 0.9-7.2 2.7-10.8 4-3.6 1.3-8.5 3.4-11 4.7-4.1 2.1-5.8 2.3-18.9 2.3h-14.4l-2 5.3c-2.1 5.6-8.7 12.1-15.7 15.7-1.9 1-11.4 7.1-21 13.5-9.6 6.5-19 12.3-20.9 12.9-1.9 0.6-7 1.1-11.3 1.1-4.4 0-8.8 0.4-9.8 1-1 0.5-3 3.4-4.3 6.3-2 4.5-3.5 6-8.4 9-3.2 2-7.2 4.1-8.8 4.7-1.7 0.6-4.6 2.1-6.5 3.3-5.2 3.3-31.1 14.4-42.5 18.3-20.8 7.2-32.8 10.5-51.5 14.3-22 4.6-28.1 5.1-60 5.7-30.6 0.5-36.9 0.9-35.4 2.4 0.5 0.5 8.8 1.8 18.4 3.1 33.1 4.1 75.1 2.4 97-4.1 3.6-1 10.8-2.7 16-3.6 8.8-1.6 19.8-5 39.5-12.3 4.4-1.6 16.1-7 26-12 29.8-15.2 39-18.5 48.3-17.1 3.1 0.4 6.5 1.1 7.4 1.5 2.2 0.9 3.8-2.2 3.8-7.7 0-3.8 0.5-4.9 3.8-8.1 3.6-3.5 10.9-8.4 20.2-13.4 2.5-1.4 5.2-3.1 6-3.8 0.8-0.7 4.2-2.7 7.5-4.5 3.3-1.8 9.1-5.1 12.9-7.3 6.5-3.9 7.5-4.2 16.7-4.7 10.7-0.6 12.1-1.3 16-7.7 2.8-4.5 11.7-10.9 19.3-14 3.3-1.4 6.5-3.2 6.9-4 0.5-0.8 2.9-2.3 5.4-3.4 4.5-1.9 5.4-4.3 1.7-4.5-1-0.1-4.9 0.2-8.6 0.7z"/>
		<path id="Layer" class="s0" d="m911.6-186.3c-0.2 1-0.7 5.4-1.1 9.8-0.4 4.4-2.2 14.5-4.1 22.4-3.1 12.5-4.3 15.7-9.8 25.7-17.4 31.1-43.3 48.5-86.2 57.8-18.9 4.1-22.5 4.6-45.7 5.6-25.5 1.1-35.5 2-33.6 3 2.2 1.1 24.8 3.8 41.6 5 15.5 1.1 31.7 0.4 47.5-2.1 10.1-1.6 35.6-10.1 44.8-15 7.7-4.1 20.2-12.9 25.3-17.7 3.4-3.2 19.7-25.6 19.7-27 0-0.6 1.6-4.8 3.6-9.3 4.7-11.1 6.6-20.2 6.7-32.9 0-8.9-0.4-11.8-2.7-18.8-2.6-8-4.8-10.4-6-6.5z"/>
		<path id="Layer" class="s0" d="m1065.5-180c-0.8 7 0.3 26.7 1.5 27.5 0.4 0.3 1.3-3.1 2-7.4 0.9-6 1-9.9 0.1-16.2-1.4-10.5-2.7-11.9-3.6-3.9z"/>
		<path id="Layer" class="s0" d="m643.6-180.1c-0.4 0.5-0.2 1.2 0.3 1.5 0.5 0.4 1.2 0.2 1.5-0.3 0.4-0.5 0.2-1.2-0.3-1.5-0.5-0.4-1.2-0.2-1.5 0.3z"/>
		<path id="Layer" class="s0" d="m-188.5-167.9c-21.5 0.9-48.3 5.3-55.8 9.1-2 1-6.8 3-10.7 4.4-11 3.9-23.7 12.3-33 21.6l-5 5v9.5c0 10.1 0.7 10.9 3.9 4.5 1-2.1 4.4-6 7.4-8.9 5.4-5.1 17.1-13.3 19-13.3 0.5 0 3.6-1.4 6.9-3 7.6-3.9 15.3-6 40.8-11.1 19.9-4 20.9-4.1 35.5-3.6 13.5 0.4 17 1 34 5.1 13.2 3.2 21.4 5.8 27 8.5 4.4 2.1 9.8 4.5 12 5.1 2.2 0.7 7.5 3.2 11.7 5.6 4.2 2.4 10.1 5.5 13 6.9 2.9 1.3 8.1 4.1 11.5 6.2 3.4 2.1 9.4 5.6 13.4 7.8 16.5 9.1 20.2 11.2 26.2 14.6 12.4 7.2 43.9 22.6 51.9 25.5 2.1 0.7 6.8 2 10.5 3 3.8 0.9 7.3 2 7.8 2.5 2 1.5 10.9 3 14.7 2.4 3.9-0.7 5.3-2.5 2-2.5-2.8 0-11.2-3.1-11.2-4.1 0-0.4-2.6-2.5-5.7-4.6-7.2-4.8-6-4.1-18.3-11.3-5.8-3.4-15.4-9.3-21.5-13.1-6-3.7-14.1-8.7-18-11-3.8-2.3-9.1-5.7-11.7-7.5-2.5-1.8-6.3-4.2-8.5-5.2-2.1-1.1-7.5-4.4-12.1-7.4-21.1-13.6-39.3-23.8-47.7-26.9-3.3-1.2-7.1-2.9-8.5-3.9-1.4-0.9-4.1-2.2-6-2.9-4.6-1.6-33.2-5.9-44-6.6-4.7-0.3-10.3-0.7-12.5-0.8-2.2-0.2-10.7 0-19 0.4z"/>
		<path id="Layer" class="s0" d="m1324.5-168.3c-8.5 0.6-21.4 2.1-36 4.3-11.3 1.7-15.4 2.8-21.4 5.6-4 2-9.2 4.2-11.5 5-2.2 0.8-8.4 3.9-13.6 6.8-5.2 3-10.6 6-12 6.7-1.4 0.8-4.3 2.7-6.5 4.2-5.6 3.9-18.9 12-25.7 15.6-3.1 1.7-5.9 3.5-6.3 4.1-0.3 0.5-5 3.5-10.3 6.6-5.3 3.2-10.6 6.4-11.7 7.4-2.4 2-29.2 18.2-38 23.1-7.1 3.8-17.3 10.9-17.8 12.3-0.3 0.7-2.9 1.9-5.9 2.6-8.1 1.8-8.7 2.2-4.8 3.1 4.1 1 11.4 0.2 15.1-1.7 1.5-0.7 6.6-2.3 11.5-3.5 4.9-1.2 14.5-4.9 21.4-8.1 17.4-8.3 39.9-19.7 43.4-22.1 1.6-1.1 5.6-3.5 9-5.2 5.5-2.9 11.7-6.4 26.3-14.8 15.7-9.1 30.5-16.7 37.3-19.2 3.6-1.3 9.2-3.7 12.5-5.4 6.1-3.1 21.7-7.2 42.5-11.2 15.8-3 31-2.3 55 2.5 23 4.7 29.6 6.6 41.3 12.1 13.8 6.4 24.2 15 31.3 25.8 3.5 5.2 4.4 4.7 4.4-2.2 0-10.3-0.9-12.7-7.4-19.1-10.8-10.7-21.1-17.5-31.9-21.1-3.4-1.1-7.5-2.9-9.2-3.9-4.2-2.5-8.7-3.6-26.1-6.5-12.1-2-47.2-5.1-49.4-4.3-0.3 0.1-2.7 0.3-5.5 0.5z"/>
		<path id="Layer" class="s0" d="m352.6-157.8c-1.4 4-1.4 4.8-0.3 8.3 0.7 2.3 2.1 4.2 3.9 5.1 1.6 0.8 3.4 2.5 3.9 3.8 1.2 2.5 6.9 4.8 8.9 3.6 1.9-1.1 0.2-3-2.6-3-1.5 0-2.7-0.7-3-1.8-1.2-3.6-2.8-6.2-3.8-6.2-0.7 0-2.3-2.6-3.7-5.8-2-4.2-2.8-5.3-3.3-4z"/>
		<path id="Layer" class="s0" d="m794-138.8l-2.5 1 2.5 1c3.1 1.2 8.3-0.8 5.9-2.3-1.7-1.1-2.7-1.1-5.9 0.3z"/>
		<path id="Layer" class="s0" d="m97.3-134.5c0 2.7 0.2 3.8 0.4 2.2 0.2-1.5 0.2-3.7 0-5-0.2-1.2-0.4 0-0.4 2.8z"/>
		<path id="Layer" class="s0" d="m766.5-131c0.7 1.2 9.9 1.2 13.5 0 1.7-0.5-0.1-0.8-5.8-0.9-5.3-0.1-8.1 0.3-7.7 0.9z"/>
		<path id="Layer" class="s0" d="m1059.1-122.8c0 2.8 0.2 3 0.9 1.3 1.2-2.8 1.2-4.5 0-4.5-0.5 0-1 1.5-0.9 3.2z"/>
		<path id="Layer" class="s0" d="m103.7-118.3c-1.1 1.7 0.3 9.1 1.8 9.7 0.8 0.3 2.2 2.4 3.3 4.8 2.6 6 7.7 12.4 18.5 23.5 10.5 10.8 11.9 11.7 20.7 13.3 3.5 0.6 8.5 2.3 11.2 3.6 2.6 1.3 10.5 3.8 17.5 5.5 11.2 2.6 14.2 3 23.8 2.6 10.3-0.3 26.4-3.6 30.6-6.3 2.4-1.4-2.7-2.2-15.4-2.3-16.1-0.1-29.4-1.8-38.4-4.7-8.7-2.8-10.8-3.8-14.5-7-1.5-1.2-5.4-3-8.5-3.9-8.2-2.2-15.1-5.5-19.6-9.3-2.1-1.7-4.2-3.2-4.5-3.2-0.4 0-3.3-2.5-6.6-5.5-3.2-3-6.9-6.1-8.2-7-1.3-0.8-2.6-2.6-3-3.9-0.3-1.3-1.6-2.8-3-3.4-1.3-0.7-3-2.6-3.7-4.4-0.8-2-1.6-2.8-2-2.1z"/>
		<path id="Layer" class="s0" d="m1051.2-112c-1.3 1.6-2.8 3-3.5 3-0.7 0.1-2.4 1.6-3.9 3.6-7 9.3-23.4 20.5-36.3 24.8-2.7 0.9-7.3 3.2-10 5.1-5.1 3.5-16.8 7.8-26 9.6-2.7 0.6-13.4 1.4-23.7 1.8-17 0.6-21.1 1.2-19.6 2.6 0.2 0.3 5.8 1.9 12.4 3.6 11 2.9 12.7 3.1 23.4 2.6 12.2-0.6 27.8-4 34.8-7.6 2.1-1.1 7.6-2.9 12.2-4.1 4.6-1.2 9.8-3.1 11.4-4.3 3.4-2.3 17.6-16.8 21.6-21.9 3-3.8 7-10.6 7-12 0-0.5 0.7-1.6 1.5-2.4 1.2-1.3 2.2-7.4 1.2-7.4-0.2 0-1.3 1.3-2.5 3z"/>
		<path id="Layer" class="s0" d="m277-98.1c0 1.5 0.7 2.1 2.3 2.1 2.6 0 4.2 1 5 3 0.3 0.9 0.6 0.4 0.6-1.3 0.1-1.9-0.4-2.7-1.7-2.7-1 0-2.8-0.7-4-1.6-2.1-1.4-2.2-1.4-2.2 0.5z"/>
		<path id="Layer" class="s0" d="m296.9-83.9c-2.1 1.3-0.4 2.1 3.6 1.7l3.8-0.3-3.1-1.1c-1.6-0.6-3.6-0.8-4.3-0.3z"/>
		<path id="Layer" class="s0" d="m315.1-75.6c0.2 0.2 1.4 0.9 2.7 1.5 1.8 1 2.2 0.9 2.2-0.4q0-1.5-2.7-1.5c-1.4 0-2.4 0.2-2.2 0.4z"/>
		<path id="Layer" class="s0" d="m321-70.6c0 1.7 3.1 2.6 8.8 2.6 5.5 0 5.4-1.3-0.3-2.8-5.9-1.6-8.5-1.5-8.5 0.2z"/>
		<path id="Layer" fill-rule="evenodd" class="s0" d="m174.4 51.4c9.7 6.1 17.2 13.7 25 25.5 7 10.5 17.7 32.2 20.3 41 0.9 3.1 3.1 9.1 4.9 13.3 1.8 4.2 4.7 12.3 6.5 18 1.7 5.7 4 12 5 14 1.1 2.1 3 7.7 4.3 12.5 1.3 4.9 4 12.8 6.1 17.8 2 4.9 4.8 13.1 6.1 18.3 1.3 5.1 3.5 11.5 4.9 14.1 1.3 2.7 3.6 9 5 14.2 1.5 5.2 4 12.5 5.7 16.4 1.7 3.8 4.1 10.6 5.3 15.1 1.3 4.4 3 9.5 3.9 11.2 0.9 1.7 3.6 8.2 6 14.4 2.4 6.2 6.2 15 8.5 19.5 2.2 4.4 4.1 8.4 4.1 8.8 0 1.2 13.2 22.6 19.5 31.7 15.3 22 26.9 32.8 44.7 41.3 7.4 3.6 16.6 9.5 16.7 10.6 0.2 1.6-7.2 3.9-12.6 3.9-21 0-46.7-15.7-68.4-41.6-12.2-14.6-27.3-40.6-34.4-59.4-1.6-4.1-3.7-8.9-4.6-10.5-1-1.7-2.7-6.3-3.8-10.4-1.1-4.1-4-12.4-6.5-18.5-2.4-6.1-4.9-13.6-5.6-16.6-2.3-9.9-6.7-16.1-15-20.6-3.3-1.8-5.7-2-44.2-1.9l-40.6 0.1-4.3 3c-5.7 3.9-11.4 13-14.5 23.4-1.5 4.7-3.4 10.1-4.4 12-2.7 5.3-13 35.2-13.1 38-0.1 1.4 1 5.3 2.4 8.8 4.3 10.6 2.8 11.6-18.3 12-13.7 0.3-15.9 0.1-18.9-1.6-1.9-1-3.7-2.4-3.9-3-0.2-0.6 2.5-4.1 6-7.9 8.1-8.7 12.3-15.8 18.3-31.3 2.6-6.9 5.5-13.9 6.5-15.5 1-1.7 2.8-6.2 4-10 1.3-3.9 3.4-9.2 4.7-11.8 1.3-2.7 3.7-8.4 5.3-12.7 1.6-4.4 3.9-9.9 5.1-12.2 1.2-2.4 3.6-8.4 5.4-13.3 4.4-11.9 15.1-38.1 17.4-42.5 1-1.9 2.9-6.7 4.1-10.5 1.3-3.9 3.2-8.6 4.2-10.6 1.9-3.8 12.1-28.4 16.4-39.9 1.4-3.6 4.1-9.8 6.2-13.9 6.4-12.8 4.5-19.6-8.2-30.2-6.2-5.2-12-8.5-21.7-12.2-3.1-1.2-5.8-2.7-5.9-3.2-0.2-0.6 1.6-2 4-3.3 9-4.6 22.9-2.2 36.4 6.2zm7.9 56.3c-2.3 0.5-2.3 0.4-6.3 11.8-1.6 4.4-6.1 16.3-10 26.5-4 10.2-8.7 22.5-10.5 27.5-1.7 4.9-5.5 14.6-8.4 21.5-6.7 16.2-7.2 19.7-3.7 24.9 1.5 2.1 3.7 4.2 4.9 4.5 4 1 68.2 0.7 71.4-0.4 1.8-0.7 3.8-2.6 5.2-5 1.9-3.4 2-4.4 1.1-8.5-0.6-2.6-1.9-6.3-2.9-8.3-1-2.1-2.6-6.8-3.5-10.6-1-3.9-3-9.9-4.5-13.5-1.5-3.7-4.1-11.1-5.6-16.6-1.6-5.5-4.3-13.6-6-18-1.8-4.4-4.2-11.5-5.4-15.8-2.4-8.7-4.1-12.5-7.8-17.5-2.3-3.1-3.3-3.4-8-2.5z"/>
		<path id="Layer" class="s0" d="m365.5 66c-2.7 3-3.4 8.6-2.4 17.9 0.6 5.1 0.8 52.6 0.7 117.1l-0.3 108.5-4.7 8.2c-4.2 7.5-4.5 8.3-3 9.7 3.1 2.7 7.3 3.6 17.8 3.6 10.9 0 16.9-1.5 18-4.4 0.3-0.9-1.2-4.1-3.7-7.6-2.7-3.9-4.5-7.7-5-10.8-1.2-7.5-1.1-176.6 0.2-179.9 0.5-1.5 2-3.6 3.2-4.5 2.1-1.6 2.3-1.5 6 1.9 2.2 1.9 6 6 8.5 9.1 2.5 3.2 9.4 10.9 15.2 17.2 29.9 32.3 39.6 42.8 51.5 56 7.2 7.9 20.7 22.7 30 32.8 9.4 10.2 19.9 21.7 23.5 25.7 11.7 13 49.4 53.9 53.3 57.7 4.5 4.5 8.2 5.7 10.4 3.5 1.4-1.4 1.5-14.2 1.4-119-0.2-123.6-0.3-122.9 4.3-129.2 1.1-1.6 2.9-4.7 3.8-6.7l1.7-3.8-3.2-1.7c-3.6-1.9-17.9-2.9-25.1-1.9-2.5 0.4-5.5 1.5-6.6 2.4-1.9 1.5-2 2.1-0.9 5.2 0.7 1.9 2.2 4.8 3.4 6.5 4.4 6 4.5 8.1 4.5 99v86.7l-3 3-3 3-3.8-2.3c-2-1.3-4.4-3.2-5.2-4.4-2.8-3.8-86.1-95.2-120.4-132-7.2-7.7-17.6-19-23.1-25-5.5-6-12.5-13.6-15.6-17-3-3.3-8.1-9-11.3-12.7-3.2-3.7-8-8.3-10.6-10.2-4.7-3.4-4.9-3.4-6.5-1.6z"/>
		<path id="Layer" class="s0" d="m654.7 67l-3.7 2.1 2.2 3.3c1.3 1.9 4.7 5.2 7.5 7.5 5.4 4.2 11.7 12 14.8 18.1 1 1.9 3.2 5.7 5 8.5 4.1 6.5 12.7 21 15.8 26.6 2.2 4 5.1 8.9 16.7 28.4 2.3 3.8 7.1 12.2 10.7 18.5 3.6 6.3 8.4 14.3 10.6 17.7 7.4 11.8 7.2 9.8 7.5 59.3 0.2 31.5 0 46.1-0.8 49.9-0.7 3.1-3.1 8.3-5.5 12.2-4.2 6.4-4.3 6.8-2.6 8.3 3.1 2.8 8.1 3.6 22.3 3.6 13.6 0 17.7-0.7 21-3.7 1.6-1.4 1.6-1.7 0.1-4-2.5-3.7-5.1-8.4-7.1-12.3-1.5-3.2-1.7-7.9-1.7-50v-46.5l2.9-6.9c1.6-3.8 5-10.1 7.7-14 2.6-3.9 6.3-9.7 8.1-12.8 1.8-3.2 8.3-14 14.3-23.9 6.1-10 12.6-20.8 14.5-24.1 1.9-3.2 6.6-10.9 10.4-17.1 3.8-6.1 8.2-13.5 9.7-16.2 3.9-6.9 11.7-16.4 16.5-20 2.2-1.6 5.2-4.7 6.7-6.8l2.7-3.8-4.2-1.9c-6.1-2.8-32.5-2.9-37.8-0.2-3.3 1.6-3.5 1.9-3.2 6.2 0.2 2.4 1.1 5.8 1.9 7.4 1 1.9 1.3 4 0.8 6.5-0.9 4.5-5.1 14.7-7.6 18.2-2.5 3.5-13.4 22.8-17.1 30.4-1.7 3.3-3.9 7.2-4.9 8.6-1.7 2.5-7.6 12.9-17.5 31.4-5.7 10.6-8.1 13.3-12.5 14-3.3 0.6-3.9 0.4-6.2-2.7-1.3-1.8-6.1-10.3-10.5-18.8-14.2-27.6-25.1-48.4-28.2-54-10.6-18.9-13.8-28.8-11.1-33.8 0.6-1.2 1.5-4.2 2-6.7 0.8-4.1 0.6-4.6-1.8-6.2-2.3-1.6-5.4-1.8-23.6-2-19.4-0.3-21.3-0.1-24.8 1.7z"/>
		<path id="Layer" fill-rule="evenodd" class="s0" d="m987.6 87.2c1.5 4.6 4.1 11.2 5.9 14.8 1.8 3.6 4.4 9.7 5.8 13.7 1.5 4 3.7 9.4 5 12 1.3 2.6 3.4 7.9 4.7 11.7 1.3 3.8 4.2 11.1 6.6 16.2 2.4 5.2 4.9 11.5 5.7 14.2 0.8 2.6 2.8 7.5 4.5 10.8 1.6 3.2 3.7 8.4 4.7 11.4 1 3 3.7 9.5 6 14.5 2.4 4.9 5 11.7 6 14.9 0.9 3.3 3 8.6 4.6 11.8 1.6 3.3 4.1 9.1 5.6 13.1 1.4 4 4 10.2 5.8 13.8 1.9 3.6 4.1 9.2 5 12.5 1 3.2 3 8.4 4.5 11.4 1.5 3 4.2 9.1 6 13.5 4.1 9.9 5.6 12.2 14.3 21.1l6.8 7.2-2.6 2c-3.7 2.9-8.3 3.4-28.7 3-17.4-0.3-17.8-0.3-20.2-2.8l-2.4-2.5 2.4-7c1.4-4.1 2.1-8.2 1.8-10-1.5-9.2-5-21.7-7.4-26.5-1.5-3-4.6-11.2-6.9-18.2-4.8-14.3-9-20.9-14.9-23.4-3.1-1.3-10.1-1.5-45.5-1.5l-41.9 0.1-4 2.4c-5.5 3.3-9.3 9.3-12.4 19.5-1.5 4.7-3.8 10.8-5.1 13.5-2.8 5.6-10.8 28.3-11.8 33.7-0.5 2.6 0 5.2 2.1 10.3 3.1 7.8 2.7 9.4-2.7 11.3-5.3 1.8-29 1.7-33.8-0.3-2.2-0.8-4.2-2.1-4.4-2.8-0.3-0.7 2.4-4.4 5.9-8.2 7.9-8.4 12-15.1 17.2-28.5 2.2-5.7 5.7-13.9 7.6-18.1 2-4.2 3.6-8.1 3.6-8.7 0-0.6 2.1-5.7 4.6-11.3 2.5-5.7 5.7-13.5 7.1-17.3 1.4-3.9 3.4-8.5 4.5-10.3 1.2-1.9 3.1-6.6 4.4-10.5 1.2-4 4.5-12.4 7.2-18.7 5.8-13.6 8.6-20.4 11.8-28.5 1.4-3.3 3.4-8.3 4.5-11 1.2-2.8 4.1-10 6.6-16 2.4-6.1 5.9-14.4 7.8-18.5 1.9-4.1 5.3-12.2 7.5-17.9 2.2-5.7 4.9-12 5.9-14 1-2 2.8-6.9 4-10.9 1.6-5.4 2.8-7.5 4.4-8.2 6.4-2.6 11.5 2.8 16.3 17.2zm-17.4 28.8c-1.4 0-8.9 16.8-14.6 32.6-2.9 8.3-6 16.4-6.8 18-0.9 1.6-2.3 5.4-3.3 8.4-0.9 3-4.4 12-7.7 20-7.5 18-8.6 25.8-4.5 30.6l2.5 2.9 31.3 0.3c17.3 0.2 33.2 0.1 35.5-0.3 6-0.9 9.4-4.3 9.4-9.6 0-5.4-2.3-13.9-6.1-23-1.7-4.1-4.3-11.2-5.9-15.9-1.5-4.7-4-11.4-5.5-15-1.5-3.6-4.5-11.5-6.5-17.5-8.4-24.8-10.1-28.6-13.7-30.1-1.8-0.8-3.6-1.4-4.1-1.4z"/>
		<path id="Layer" class="s0" d="m215.5 507.5c-10.4 1.9-20.7 4.6-23 6.1-1.1 0.7-5.5 2.2-9.7 3.5-7.3 2.1-8.1 2.6-15.6 10.3-4.3 4.5-8.7 9.4-9.7 11.1-1 1.6-2.9 4.1-4.1 5.5-1.2 1.4-2.4 3.6-2.6 5-0.3 1.4-0.9 3.3-1.3 4.2-0.5 1.4-0.2 1.8 1.5 1.8 1.3 0 2.4-0.8 2.7-1.9 0.3-1.1 3.3-4.2 6.6-7.1 3.4-2.8 7.6-6.2 9.2-7.6 5.6-4.8 11-7.7 17.9-9.6 4.2-1.1 7.8-2.9 9.2-4.3 6.5-7 20.2-10 51.9-11.4 14.4-0.6 16.1-0.8 11-1.4-9.1-1.2-16.4-2.5-22.5-4.2-6.4-1.8-12-1.8-21.5 0z"/>
		<path id="Layer" class="s0" d="m918 508.6c-4.7 1.2-10.7 2.4-13.5 2.4-12.6 0.4-8.6 1.7 7 2.3 29 1 44.5 4.2 49.5 10.2 2 2.4 4.6 3.6 11.4 5.2 3.3 0.7 7 2.2 8.1 3.2 1.1 1 3.1 2.4 4.5 3.1 1.4 0.7 6.4 4.7 11.2 8.7 4.8 4.1 9.2 7.2 9.8 6.8 2.5-1.5 0.7-7-4.1-12-19.3-20.3-19.2-20.2-24.7-21.4-2.9-0.6-7.9-2.2-11.1-3.6-7.7-3.2-27.8-7.5-34.4-7.4-2.9 0.1-9 1.2-13.7 2.5z"/>
		<path id="Layer" class="s0" d="m362 509.1c-11.2 1.4-16.7 2.7-24 5.5-15.3 5.8-19.3 7.6-23.5 10.6-2.2 1.5-5.6 3.6-7.6 4.7-5.8 3.2-16.3 14.6-23.4 25.3-5.4 8-7.2 11.9-10 21.2-4.2 13.7-5 19.9-4 30l0.7 7.6h3.9c3.9 0 3.9 0 3.9-3.9 0-11.3 5.6-28.1 14-42.1 7.3-12.3 20.8-25 37.3-35.2 5.3-3.3 28.8-11.7 40.7-14.6 11.5-2.8 30.7-4.2 57.9-4.2 12.4 0 23.2-0.4 23.9-0.9 2.3-1.4-4.2-2.2-22.8-2.7-9.6-0.3-21.3-1.2-26-1.9-11-1.9-23-1.7-41 0.6z"/>
		<path id="Layer" class="s0" d="m704 509.1c-9.1 1-19.2 2.8-22.5 3.8-3.3 1.1-10.7 2.9-16.5 4.1-12 2.6-23.7 6.4-33 10.9-3.6 1.7-7.1 3.1-7.8 3.1-0.8 0-6.6 2.8-13 6.3-28.2 15.1-27.9 15-39.9 15.5-5.9 0.2-11.6 0.9-12.6 1.4-1 0.5-3.3 4.2-5.1 8.1-3 6.5-3.8 7.5-8.7 10.1-3 1.6-9 5.3-13.4 8.1-21.4 13.9-26 15.9-38.2 16.9-4.5 0.3-8.9 0.9-9.7 1.2-0.8 0.3-3.6 3.7-6.2 7.5-2.6 3.8-5.5 7.1-6.5 7.4-1 0.3-3.4 1.7-5.5 3.1-2 1.4-5.5 3.2-7.8 4.1-5.8 2.2-6.4 3.1-3.1 4.3 3.9 1.5 15.2-0.3 19.9-3.1 5.4-3.1 22.2-7.9 28-7.9 2.8 0 6.5 0.4 8.1 0.8 3.6 1 7.6 0.2 8.5-1.8 0.4-0.8 1.6-3.5 2.8-6 1.9-4.4 3.7-6 14-12.3 7.1-4.4 18.7-12.2 23.2-15.6 7.4-5.6 13.9-8.1 22.9-8.8 8.2-0.6 8.2-0.6 12.1-5.1 2.2-2.5 4-4.8 4-5.2 0-1 12.1-8.7 16.7-10.6 2.1-0.9 8.3-3.8 13.8-6.4 5.5-2.6 12.5-5.6 15.5-6.5 3-1 7.6-2.8 10.2-4.2 2.6-1.3 7.8-3 11.5-3.9 3.8-0.8 10.9-2.8 15.8-4.4 17.2-5.4 24.8-7.1 38.9-8.5 21.9-2.3 43.7-2.9 57.1-1.6 9 0.8 13 0.8 16-0.1l4-1.1-5.5-1.4c-4-0.9-9.6-1.1-20-0.7-10.7 0.5-17.2 0.2-25-1-17.1-2.5-25.2-2.6-43-0.5z"/>
		<path id="Layer" class="s0" d="m85.5 511.7c-1.1 0.3-2.3 0.9-2.6 1.4-0.3 0.5-4.4 2-9 3.4-4.7 1.3-13 4.7-18.5 7.5-5.4 2.8-11.9 5.8-14.4 6.7-2.5 0.8-7.7 3.5-11.6 5.9-4 2.3-9.4 5.4-12 6.6-2.7 1.3-6.9 3.8-9.3 5.6-2.4 1.8-4.9 3.2-5.5 3.2-0.7 0-4.5 2.1-8.6 4.6-4.1 2.5-10.9 6.4-15 8.6-4.1 2.1-9.1 4.8-11 5.8-11.4 6.2-29.1 13.7-39.5 16.7-19.3 5.7-23.1 6.4-40.5 7-17.4 0.5-34.8-1-46-4.2-3-0.9-9.5-2.7-14.5-4-8.8-2.4-23-9-25.5-12-0.7-0.8-1.8-1.5-2.4-1.5-1.9 0-10.2-8.1-12-11.7-0.9-1.8-2.2-3.6-3-4-0.8-0.4-3.1-4.3-5.1-8.7-3.2-6.8-3.8-9.6-5.1-21-0.7-7.2-1.4-13.4-1.4-13.9 0-0.4-0.4-0.7-0.9-0.7-1.1 0-4.7 10.8-5.5 16.5-1.7 12.2 7.4 32 20.7 45.4 12.2 12.3 22.5 18.6 40.2 24.8 12.5 4.4 44.6 9.3 60.6 9.3 9.7 0 43.6-3.8 53.6-6.1 4.5-1 31.8-13.2 34.3-15.3 0.8-0.7 4-2.6 7-4.3 8.5-4.6 26.9-15.8 49-29.8 22.7-14.4 32.3-20.2 40.4-24.6 3.3-1.7 6.6-3.7 7.4-4.5 0.7-0.8 2.8-2.2 4.5-3.1 1.8-0.9 4.4-2.6 5.9-3.9 1.5-1.2 4.3-2.8 6.3-3.4 1.9-0.6 3.3-1.6 3-2.1-0.6-0.9-10.4-1.1-14-0.2z"/>
		<path id="Layer" class="s0" d="m1060.2 511.8c-0.9 0.6-0.1 1.2 2.8 2.1 2.2 0.7 5.3 2.3 6.8 3.6 4.6 4.2 9.4 7.4 15.9 10.5 3.4 1.6 6.4 3.4 6.8 4 0.4 0.6 2.9 2.2 5.6 3.6 2.8 1.4 8 4.5 11.6 7 3.6 2.5 8.2 5.3 10.2 6.4 2 1 6.6 3.8 10.2 6.2 6 3.9 16.2 10.4 19.9 12.7 22.8 13.9 32.6 19.6 39 22.7 26.9 12.8 25.4 12.3 52.9 15.9 27.1 3.6 41.4 3.1 75.1-2.7 7.6-1.3 23.3-6.7 30.5-10.5 13.4-7.1 26.4-18.6 34.5-30.5 5.4-7.9 10.1-21.3 10.7-30.6 0.4-6.8 0.4-7.2-1.7-7.2-3.6 0-6 1.9-6 4.6 0 9.8-8.3 27.3-17.2 36.5-9.1 9.3-23.8 17.6-36.4 20.5-3.8 0.8-9.4 2.4-12.4 3.4-10.5 3.5-27.9 5.3-47.5 4.7-11-0.3-20.1-1.1-23.5-2-17.5-4.6-28.7-8.5-38.5-13.2-6-2.9-12.7-5.8-14.7-6.4-2-0.7-4.8-2.1-6.3-3.3-1.4-1.1-5.3-3.3-8.7-5-3.3-1.6-8.6-4.5-11.6-6.4-3-2-8.2-4.9-11.5-6.5-3.3-1.6-6.8-3.5-7.6-4.3-0.9-0.8-5.7-3.6-10.6-6.2-5-2.6-10.2-5.5-11.6-6.5-1.4-1-5.2-2.8-8.5-4-3.2-1.2-7.1-3-8.5-4-1.4-1-5-2.8-8-3.9-3-1.2-5.8-2.5-6.4-3-0.5-0.4-4.6-1.8-9-3.1-4.4-1.2-8.8-2.9-9.7-3.7-2-1.7-14.6-2.8-16.6-1.4z"/>
		<path id="Layer" class="s0" d="m822.7 524.6c-1 1.1 0.3 2.4 2.4 2.4 2.3 0 2.5-1.5 0.3-2.4-1.9-0.7-1.9-0.7-2.7 0z"/>
		<path id="Layer" class="s0" d="m838 533c0 0.5 1 1 2.3 1 1.8 0 1.9-0.2 0.7-1-1.9-1.3-3-1.3-3 0z"/>
		<path id="Layer" class="s0" d="m858.5 548c0.3 0.5 0.8 1 1.1 1 0.2 0 0.4-0.5 0.4-1 0-0.6-0.5-1-1.1-1-0.5 0-0.7 0.4-0.4 1z"/>
		<path id="Layer" class="s0" d="m865.7 557.2c0.8 4.4 1.3 4.8 1.3 1 0-1.7-0.4-3.4-1-3.7-0.6-0.4-0.7 0.6-0.3 2.7z"/>
		<path id="Layer" class="s0" d="m872 566.2c0 3.9 1.7 5.9 3.1 3.7 1.2-1.9 1.1-2-1.1-4.9l-2-2.5z"/>
		<path id="Layer" class="s0" d="m711 573.7c-3.7 0.7-21.8 7.1-24.8 8.8-1.5 0.8-5.1 2.4-8 3.5-3 1.1-6.8 3.1-8.5 4.5-1.8 1.3-6.1 3.7-9.7 5.4-5.6 2.7-7.6 3.1-14.8 3.1-4.6 0-9.2 0.4-10.2 1-1 0.6-2.5 3.4-3.4 6.4-1.7 5.6-6.3 10.8-12.5 14.1-3.3 1.7-22 15.5-25.9 19-1.3 1.2-5.3 3.7-8.9 5.5-5.8 3-7.5 3.4-14.7 3.4l-8.1 0.1-0.3 5.3c-0.3 4.5-0.8 5.8-3.8 8.8-2 1.9-7 5.7-11.2 8.4-4.3 2.7-9.7 6.2-12.2 7.9-11.9 8.1-25.9 17-29.5 18.9-2.2 1.1-5.3 3.4-6.8 5-2.4 2.5-2.7 3.5-2.1 6.6 0.4 2.5 1.5 4.3 3.3 5.3 1.4 0.9 5.2 3.3 8.4 5.5 3.2 2.1 6.6 3.8 7.7 3.8 1.1 0 2.4 0.9 3 2 0.6 1.1 1.8 2 2.6 2 0.9 0 1.4-0.3 1.2-0.8-6.9-13.2-6-19.5 3.4-25.4 5.7-3.4 8.5-5.2 24.2-15.3 5.2-3.3 10.7-6.8 12.2-7.8 1.6-0.9 5.1-3.3 7.8-5.2 5.7-3.9 10.8-5 20.2-4.2 7.5 0.6 8.4-0.2 8.4-7.8 0-6.3 2.1-9.4 9.4-14.3 3.3-2.3 10.6-7.3 16.1-11.2 5.5-3.9 11.3-7.8 12.9-8.8 1.6-0.9 5.1-3.2 7.9-5.1 5.7-3.8 12.3-6.1 17.6-6.1 4.9 0 9.6-3.1 12-7.8 2.8-5.6 7.2-8.9 19.4-15.2 5.9-3 12.2-6.3 14-7.2 1.7-0.9 5.5-2.2 8.2-2.9 2.8-0.6 5.9-1.9 7-2.9 1.1-1 3.8-2.6 6-3.5 3.5-1.5 3.8-1.8 2-2.5-2.1-0.9-15.2-1.1-19.5-0.3z"/>
		<path id="Layer" class="s0" d="m879.6 578.5c0.4 2.7 0.8 5.2 1 5.4 0.8 0.9 0.2-6.5-0.7-8.4-0.6-1.3-0.7-0.4-0.3 3z"/>
		<path id="Layer" class="s0" d="m882.6 585.9c-0.4 0.5-0.1 4.3 0.5 8.3 1.9 12.5 0.7 25.6-3.5 38.2-2 6.1-4.2 11.7-5 12.5-0.8 0.9-2.6 4.1-4.1 7.1-3.6 7.2-25.5 29.2-31.4 31.6-2.3 0.9-4.1 2-4.1 2.5 0 0.5-1.9 2.1-4.2 3.6-2.4 1.5-4.8 3.3-5.5 4.1-3.6 4.3-34.3 4.3-34.3 0 0-1.5-1.8-0.8-2.3 0.9-0.2 1-0.8 2.6-1.2 3.5-0.5 1.3 0.3 2.2 3.7 3.9 2.4 1.2 5 2.7 5.8 3.4 2.5 2.1 13.2 7.5 14.9 7.5 2.7 0 6-2.9 7.5-6.4 0.8-1.8 2.8-4.3 4.5-5.5 1.7-1.2 3.1-2.8 3.1-3.4 0-0.7 3.4-2 7.8-3 4.4-1 9.6-3 12.2-4.7 2.5-1.6 6.1-4 8-5.2 5.1-3.3 18.5-17.1 21.4-22.1 6.9-11.6 11.8-22.8 12.8-29.4 1.1-7.1 0.5-36.3-1-43.8-0.5-3-1.2-4.1-2.9-4.3-1.1-0.2-2.4 0.1-2.7 0.7z"/>
		<path id="Layer" class="s0" d="m782.6 591.7c0.4 2.1 1.4 4.6 2.3 5.7 1.1 1.2 1.6 3.7 1.6 8 0 5.1-0.7 7.5-3.5 13.2-3 5.9-4.2 7.3-8.4 9.5-2.7 1.5-6 4.1-7.3 5.8l-2.4 3.1 5.7 2.5c5.5 2.4 5.8 2.5 7.7 0.8 1.1-1 3.6-4.3 5.6-7.3 3.7-5.7 4.9-7.2 10.8-13.6 3-3.2 6.3-8.4 6.3-9.8 0-0.2-1.5-1.4-3.3-2.5-3-1.8-5.2-5.4-7.1-11.4-0.3-0.9-1.5-1.7-2.7-1.7-1.4 0-2.4-1-3.2-3-1.6-4.2-2.9-3.7-2.1 0.7z"/>
		<path id="Layer" class="s0" d="m1024.7 599c-0.9 6.9-0.7 19.7 0.2 23 1.3 4.3 2.4-12.2 1.4-20.8l-0.8-7.7z"/>
		<path id="Layer" class="s0" d="m366.3 597.3c-0.7 1.5-2.3 3.2-3.5 3.8-1.3 0.5-3.3 2.8-4.6 5l-2.3 4 2.1 3.4c1.2 1.9 2.6 3.5 3.1 3.5 2.3 0 10.6 9.2 11.8 13 0.9 3.1 2.1 4.4 5 6l3.8 1.9 1.8-3.8c1.6-3.7 1.6-4-0.1-6.6-1-1.5-4.1-5.2-7-8.2-5.5-5.6-5.5-5.7-8.1-20.3l-0.8-4.4z"/>
		<path id="Layer" class="s0" d="m83.2 618c0 1.4 0.2 1.9 0.5 1.2 0.2-0.6 0.2-1.8 0-2.5-0.3-0.6-0.5-0.1-0.5 1.3z"/>
		<path id="Layer" class="s0" d="m276.7 619.3c-1.5 3.8-0.4 18.7 1.4 18.7 1 0 1.1-9.5 0.1-16-0.6-3.3-0.9-4-1.5-2.7z"/>
		<path id="Layer" class="s0" d="m85.8 623.2c1.3 0.7 2.6 2.6 3.2 5 0.6 2.1 1.7 3.8 2.5 3.8 0.7 0 2.3 1.2 3.5 2.7 2.1 2.7 9.5 5.7 11.2 4.7 1.6-1 0.8-2.2-2.7-4.3-1.9-1.1-3.5-2.7-3.5-3.6 0-0.9-1.6-2.3-3.5-3.1-2-0.8-4.1-2.6-4.7-3.9-0.9-2-1.8-2.5-4.7-2.4-3.3 0-3.4 0.1-1.3 1.1z"/>
		<path id="Layer" class="s0" d="m1069.8 622.9c-1.4 0.3-3.6 1.8-4.7 3.3-1.2 1.5-3 2.9-4 3.3-1 0.3-2.1 1.5-2.4 2.5-0.3 1.1-2.1 2.7-4 3.5-1.9 0.8-3.7 2.3-4 3.4-1 4-17 4-22.2-0.1-1.4-1-2.5-2.6-2.5-3.3 0-1.2-0.6-1.1-3.7 0.1-2.1 0.9-4.7 2.4-5.8 3.4-1.1 1-3.5 2.5-5.3 3.4-4.3 2.2-6.4 6.9-5.3 11.9 0.6 2.4 0.5 4.2-0.4 5.4-0.7 1-1.7 3.4-2.4 5.4-1.9 5.8-27.8 31.8-39.8 39.9-1.1 0.8-5.3 3.6-9.1 6.3-6.3 4.2-17.4 9.4-27.2 12.5-9.4 3.1-25.9 5.2-40.5 5.1-17.9 0-51.8-4.6-53.8-7.3-1.4-1.7-8-2.6-8.6-1.1-0.3 0.5 0.7 1.2 2.2 1.5 1.6 0.3 3.3 1.5 4 2.9 0.7 1.4 2.9 2.9 5.7 3.8 2.5 0.8 5.5 2.4 6.7 3.5 1.4 1.3 7.3 3.4 15.5 5.5 10.9 2.8 15.8 3.5 27.3 4 7.8 0.3 16.2 0.1 19-0.5 19.8-3.9 29.8-6.7 36.5-9.9 8.6-4.1 20.2-10.7 24.3-13.7 6.1-4.6 19.7-16.5 24.1-21.2 8.7-9.3 9.4-10 11-13.2 0.9-1.8 2.1-3.2 2.7-3.2 0.5 0 2.2-2.6 3.7-5.8 3.2-6.7 3.6-7.2 11.7-15.7 6.2-6.4 12.1-9.4 22-11.1 6.7-1.2 11.6-3.3 13.7-5.9 1.1-1.4 2.8-2.5 3.7-2.5 2.6 0 12.1-7.8 12.1-10 0-2.9 1.1-5 2.6-5 0.8 0 1.4-0.5 1.4-1 0-1.1-0.1-1.1-4.2-0.1z"/>
		<path id="Layer" class="s0" d="m138 628.1c0 2.3-6.5 11-9.7 13-2.4 1.5-3.7 1.6-9.3 0.7-10.3-1.7-11.5-1.6-11.5 0.7 0 2.5 5 4.4 12.2 4.4 2.8 0.1 5.4 0.5 5.7 1 0.3 0.4 3.4 2.2 6.9 3.9 3.5 1.6 7.4 4.3 8.6 5.9 2.8 3.5 6.5 8.9 8.8 12.6 1 1.5 3.5 5.1 5.6 7.9 2 2.7 3.7 5.4 3.7 5.8 0 0.4 1.5 2.4 3.3 4.2 1.7 1.9 5 5.5 7.2 7.9 9 9.9 22.3 20.6 36.5 29.5 10.9 6.7 27.7 12.2 48 15.6 11.3 1.8 30.7 0.5 45.8-3.2 7.8-1.9 14.1-4 15-5 2.3-2.4 7.6-5 10.2-5 1.1 0 2.3-0.7 2.7-1.5 0.3-0.9 2.3-2.5 4.4-3.6 5.6-2.8 5.1-4.3-1.2-3.6-3.3 0.4-5.6 1.3-6.7 2.7-2.6 3-32.9 7.3-51.7 7.3-17.1-0.1-37.4-3.4-46.9-7.8-1.7-0.8-5.3-2.2-8.1-3.3-4.7-1.7-20-11.5-28.9-18.6-3.3-2.6-21.3-20.3-30.1-29.6-3-3.1-4.9-10.8-4.2-16.3 0.6-4 0.4-4.3-5.8-10.2-4.7-4.5-6.6-7.2-7.6-10.5-1.3-4.8-2.9-7.4-2.9-4.9z"/>
		<path id="Layer" class="s0" d="m311.5 678c-0.4 0.6 1.1 1 3.6 1 4.8 0 4.9-0.4 0.2-1.3-1.8-0.4-3.5-0.2-3.8 0.3z"/>
		<path id="Layer" class="s0" d="m458.8 678.7c1.2 0.2 3.2 0.2 4.5 0 1.2-0.2 0.2-0.4-2.3-0.4-2.5 0-3.5 0.2-2.2 0.4z"/>
		<path id="Layer" class="s0" d="m607.8 678.7c0.6 0.2 1.8 0.2 2.5 0 0.6-0.3 0.1-0.5-1.3-0.5-1.4 0-1.9 0.2-1.2 0.5z"/>
		<path id="Layer" class="s0" d="m324.9 685.1c-0.6 0.3 0.7 1.3 2.8 2.2 2.1 0.9 5.2 2.5 6.8 3.6 1.9 1.2 4.7 1.9 7.5 1.9 2.8 0 3.7-0.2 2.5-0.6-3.2-1.1-7.5-4.3-7.5-5.7 0-1.4-10.3-2.6-12.1-1.4z"/>
		<path id="Layer" class="s0" d="m362 691.1c-2.5 0.4-6.3 0.8-8.5 0.8l-4 0.1-0.2 7.6c-0.2 6.9 0 7.6 2 8.3 1.5 0.6 3 0.3 4.7-0.9 7.1-4.9 10.8-6 23.2-6.7l12.3-0.7-5.3-1.5c-3.3-1-6.6-2.9-8.6-4.9-3.5-3.5-6.1-3.8-15.6-2.1z"/>
		<path id="Layer" class="s0" d="m636.2 698.2c-0.7 0.7-0.7 2-0.1 3.8 0.6 1.5 0.9 4.9 0.7 7.6-0.3 5.2 0.3 4.6-13.8 14.2-6.7 4.5-25.3 23-29.5 29.2-1.6 2.5-3.5 5.1-4.2 5.8-0.6 0.6-1.5 2.2-1.9 3.5-0.4 1.2-2.7 4.6-5.2 7.5-3.7 4.3-5.5 5.5-10.5 7.1-3.4 1-6.5 2.5-7 3.3-1.3 2 3.1 15.6 5.2 16.2 0.9 0.2 2.5 0.7 3.7 1 1.7 0.5 2.7-0.4 5.7-5.2 2-3.3 4.5-7.9 5.6-10.3 5.6-12.4 27.6-35.8 44.1-46.9 19.6-13.2 23.9-16.3 26.4-18.9 2.9-3.1 3-3.1 1.3-6.6-0.9-1.9-3.1-4.1-4.9-5.1-1.8-0.9-4.2-2.4-5.3-3.3-2.8-2.4-9.1-4.1-10.3-2.9z"/>
		<path id="Layer" class="s0" d="m525.1 731.8c-1.3 2.4 0.3 4.2 3.6 4.2 3 0 2.9-2-0.2-4.3-2.3-1.7-2.5-1.7-3.4 0.1z"/>
		<path id="Layer" class="s0" d="m532.5 737.9c-0.9 1.6 0.4 5.1 2 5.1 2.4 0 2.7-1.9 0.7-4.1-1.3-1.3-2.2-1.7-2.7-1z"/>
		<path id="Layer" class="s0" d="m539.5 746c-0.7 1.2 0.2 3 1.6 3 1.2 0 1.2-2.7 0-3.5-0.5-0.3-1.2-0.1-1.6 0.5z"/>
		<path id="Layer" class="s0" d="m547.1 755.6c0 1.1 0.3 1.4 0.6 0.6 0.3-0.7 0.2-1.6-0.1-1.9-0.3-0.4-0.6 0.2-0.5 1.3z"/>
	</g>
</svg>