<svg version="1.2" xmlns="http://www.w3.org/2000/svg" viewBox="0 0 547 431" fill="#FFFFF">
	<g id="Layer">
		<path id="Layer" fill-rule="evenodd" class="s0" d="m174.4 51.4c9.7 6.1 17.2 13.7 25 25.5 7 10.5 17.7 32.2 20.3 41 0.9 3.1 3.1 9.1 4.9 13.3 1.8 4.2 4.7 12.3 6.5 18 1.7 5.7 4 12 5 14 1.1 2.1 3 7.7 4.3 12.5 1.3 4.9 4 12.8 6.1 17.8 2 4.9 4.8 13.1 6.1 18.3 1.3 5.1 3.5 11.5 4.9 14.1 1.3 2.7 3.6 9 5 14.2 1.5 5.2 4 12.5 5.7 16.4 1.7 3.8 4.1 10.6 5.3 15.1 1.3 4.4 3 9.5 3.9 11.2 0.9 1.7 3.6 8.2 6 14.4 2.4 6.2 6.2 15 8.5 19.5 2.2 4.4 4.1 8.4 4.1 8.8 0 1.2 13.2 22.6 19.5 31.7 15.3 22 26.9 32.8 44.7 41.3 7.4 3.6 16.6 9.5 16.7 10.6 0.2 1.6-7.2 3.9-12.6 3.9-21 0-46.7-15.7-68.4-41.6-12.2-14.6-27.3-40.6-34.4-59.4-1.6-4.1-3.7-8.9-4.6-10.5-1-1.7-2.7-6.3-3.8-10.4-1.1-4.1-4-12.4-6.5-18.5-2.4-6.1-4.9-13.6-5.6-16.6-2.3-9.9-6.7-16.1-15-20.6-3.3-1.8-5.7-2-44.2-1.9l-40.6 0.1-4.3 3c-5.7 3.9-11.4 13-14.5 23.4-1.5 4.7-3.4 10.1-4.4 12-2.7 5.3-13 35.2-13.1 38-0.1 1.4 1 5.3 2.4 8.8 4.3 10.6 2.8 11.6-18.3 12-13.7 0.3-15.9 0.1-18.9-1.6-1.9-1-3.7-2.4-3.9-3-0.2-0.6 2.5-4.1 6-7.9 8.1-8.7 12.3-15.8 18.3-31.3 2.6-6.9 5.5-13.9 6.5-15.5 1-1.7 2.8-6.2 4-10 1.3-3.9 3.4-9.2 4.7-11.8 1.3-2.7 3.7-8.4 5.3-12.7 1.6-4.4 3.9-9.9 5.1-12.2 1.2-2.4 3.6-8.4 5.4-13.3 4.4-11.9 15.1-38.1 17.4-42.5 1-1.9 2.9-6.7 4.1-10.5 1.3-3.9 3.2-8.6 4.2-10.6 1.9-3.8 12.1-28.4 16.4-39.9 1.4-3.6 4.1-9.8 6.2-13.9 6.4-12.8 4.5-19.6-8.2-30.2-6.2-5.2-12-8.5-21.7-12.2-3.1-1.2-5.8-2.7-5.9-3.2-0.2-0.6 1.6-2 4-3.3 9-4.6 22.9-2.2 36.4 6.2zm7.9 56.3c-2.3 0.5-2.3 0.4-6.3 11.8-1.6 4.4-6.1 16.3-10 26.5-4 10.2-8.7 22.5-10.5 27.5-1.7 4.9-5.5 14.6-8.4 21.5-6.7 16.2-7.2 19.7-3.7 24.9 1.5 2.1 3.7 4.2 4.9 4.5 4 1 68.2 0.7 71.4-0.4 1.8-0.7 3.8-2.6 5.2-5 1.9-3.4 2-4.4 1.1-8.5-0.6-2.6-1.9-6.3-2.9-8.3-1-2.1-2.6-6.8-3.5-10.6-1-3.9-3-9.9-4.5-13.5-1.5-3.7-4.1-11.1-5.6-16.6-1.6-5.5-4.3-13.6-6-18-1.8-4.4-4.2-11.5-5.4-15.8-2.4-8.7-4.1-12.5-7.8-17.5-2.3-3.1-3.3-3.4-8-2.5z"/>
	</g>
</svg>